<svg xmlns="http://www.w3.org/2000/svg" viewBox="0 0 80 24">
  <defs>
    <linearGradient id="mg" x1="0" y1="0" x2="1" y2="0">
      <stop offset="0" stop-color="#00B4E6"/>
      <stop offset="1" stop-color="#0072BC"/>
    </linearGradient>
  </defs>
  <path d="M8 4h6.4c1.6 0 2.7.8 3.2 2.4l3.4 9.2 3.4-9.2c.5-1.6 1.6-2.4 3.2-2.4H34v16h-6V10l-4 10h-6l-4-10v10H8V4z" fill="#4DB45E"/>
  <path d="M37 4h6v10c0 1.6.8 2.4 2.4 2.4h1.6c1.6 0 2.4-.8 2.4-2.4V4h6v10c0 4.8-3 7.2-7 7.2h-4.4c-4 0-7-2.4-7-7.2V4z" fill="#4DB45E"/>
  <path d="M58 4h11c3.2 0 5 1.6 5 4.2v2.6c0 2.4-1.8 4.2-5 4.2h-5V20h-6V4zm6 7.6h3.4c.8 0 1.6-.5 1.6-1.6s-.8-1.6-1.6-1.6H64v3.2z" fill="#4DB45E"/>
  <path d="M8 2h6.4c1.6 0 2.7.6 3.2 1.6l2.4 5c.8-3.2 3.2-5.6 7.2-5.6h7.2c-.3-.6-.8-1-1.6-1H8z" fill="url(#mg)"/>
</svg>
