<svg xmlns="http://www.w3.org/2000/svg" viewBox="0 0 80 26">
  <path d="M32.3 2.4L28.1 23.6h-5.2l4.2-21.2h5.2zm21.3 13.7l2.7-7.5 1.6 7.5h-4.3zm5.8 7.5h4.8L60 2.4h-4.4c-1 0-1.8.6-2.2 1.4L45.3 23.6h5.4l1.1-3h6.6l.6 3h.4zm-12.8-6.9c0-5.6-7.7-5.9-7.7-8.4 0-.8.7-1.6 2.3-1.8 1.1-.1 3.7 0 5.4 1.1l1-4.6c-1.3-.5-3-.9-5.1-.9-5.4 0-9.2 2.9-9.2 7 0 3 2.7 4.7 4.8 5.7 2.1 1.1 2.8 1.8 2.8 2.7 0 1.5-1.7 2.1-3.2 2.1-2.1 0-4.2-.6-5.4-1.3l-1 4.7c1.3.5 3.6 1 6 1 5.7 0 9.4-2.8 9.4-7.2l-.1-.1zM26.7 2.4l-8.8 21.2H12.4L7.4 7c-.3-1.1-.6-1.4-1.4-1.8C4.3 4.3 1.5 3.5.2 3l.1-1h8.6c1.1 0 2 .7 2.3 2l2.1 11.3 5.2-13.3h5.4l2.8.4z" fill="#1565C0"/>
</svg>
