<svg width="783" height="108" viewBox="0 0 783 108" fill="none" xmlns="http://www.w3.org/2000/svg">
<path d="M40.5823 107.807C35.86 107.807 31.6788 107.414 28.0387 106.627C24.3986 105.839 21.152 104.806 18.2989 103.528C15.5442 102.15 13.1831 100.625 11.2155 98.9528C9.24784 97.2803 7.57536 95.5587 6.19802 93.7878C2.95144 89.7542 0.885431 85.081 0 79.7685H29.5144C29.7111 81.0474 30.2522 82.1788 31.1377 83.1626C31.9247 83.9497 33.0561 84.6875 34.5318 85.3762C36.0075 86.0649 38.0244 86.4092 40.5823 86.4092C43.5337 86.4092 45.5013 86.0649 46.4851 85.3762C47.469 84.6875 47.9609 83.8021 47.9609 82.7199C47.9609 81.2442 46.8295 80.1128 44.5667 79.3257C42.4023 78.5387 39.6476 77.7516 36.3027 76.9646C32.9577 76.1775 29.3176 75.2921 25.3824 74.3083C21.5455 73.2261 17.9546 71.7504 14.6096 69.8811C11.2647 67.9135 8.46079 65.4048 6.19802 62.355C4.03363 59.2068 2.95144 55.1731 2.95144 50.2541C2.95144 47.3026 3.6893 44.4496 5.16502 41.6949C6.64073 38.8419 8.85431 36.3331 11.8058 34.1687C14.8556 31.906 18.6432 30.0859 23.1688 28.7086C27.6943 27.3312 33.0069 26.6426 39.1066 26.6426C43.5337 26.6426 47.469 27.0361 50.9123 27.8232C54.3556 28.5118 57.4055 29.4956 60.0618 30.7746C62.718 31.9552 64.9808 33.3325 66.8501 34.9066C68.8177 36.4807 70.4902 38.0548 71.8675 39.6289C75.0157 43.4658 77.1309 47.7454 78.2131 52.4677H49.4366C49.1414 51.5822 48.6987 50.746 48.1084 49.9589C47.5181 49.2703 46.6819 48.68 45.5997 48.1881C44.6159 47.5978 43.1894 47.3026 41.3201 47.3026C38.7622 47.3026 36.9914 47.5978 36.0075 48.1881C35.1221 48.7784 34.6794 49.467 34.6794 50.2541C34.6794 51.7298 35.7616 52.8612 37.926 53.6482C40.1887 54.4353 42.9926 55.1731 46.3376 55.8618C49.6825 56.5505 53.2735 57.3867 57.1103 58.3705C61.0456 59.3544 64.6857 60.7809 68.0306 62.6501C71.3756 64.5194 74.1303 66.9789 76.2947 70.0287C78.5574 73.0785 79.6888 77.063 79.6888 81.982C79.6888 85.327 78.9018 88.5736 77.3277 91.7218C75.7536 94.7716 73.3432 97.5263 70.0966 99.9858C66.8501 102.347 62.7672 104.216 57.8482 105.594C52.9291 107.069 47.1738 107.807 40.5823 107.807Z" fill="#ffffff"/>
<path d="M708.547 107.807C702.251 107.807 696.446 106.725 691.134 104.561C685.821 102.396 681.197 99.4939 677.262 95.8538C673.425 92.1153 670.425 87.7373 668.26 82.7199C666.096 77.7025 665.014 72.3899 665.014 66.7821C665.014 61.1744 666.047 55.9602 668.113 51.1395C670.277 46.2204 673.278 41.9409 677.115 38.3008C680.951 34.6606 685.526 31.8076 690.839 29.7416C696.151 27.6756 702.054 26.6426 708.547 26.6426C715.041 26.6426 720.993 27.7248 726.404 29.8892C731.815 32.0535 736.438 34.9558 740.275 38.5959C744.211 42.236 747.26 46.5156 749.425 51.4347C751.688 56.2553 752.819 61.3712 752.819 66.7821V71.652H696.742C697.135 76.0792 698.463 79.5225 700.726 81.982C703.087 84.4416 705.94 85.6713 709.285 85.6713C711.548 85.6713 713.368 85.327 714.745 84.6383C716.221 83.9497 717.352 83.2118 718.14 82.4248C719.123 81.4409 719.861 80.3096 720.353 79.0306H752.081C750.31 84.4416 747.556 89.2623 743.817 93.4926C742.243 95.2635 740.325 97.0344 738.062 98.8052C735.897 100.478 733.389 102.003 730.536 103.38C727.683 104.659 724.436 105.692 720.796 106.479C717.156 107.364 713.073 107.807 708.547 107.807ZM720.353 59.1084C719.96 57.2392 719.271 55.5175 718.287 53.9434C717.5 52.6644 716.319 51.4838 714.745 50.4017C713.171 49.3195 711.105 48.7784 708.547 48.7784C705.989 48.7784 703.923 49.3195 702.349 50.4017C700.775 51.4838 699.595 52.6644 698.808 53.9434C697.824 55.5175 697.135 57.2392 696.742 59.1084H720.353Z" fill="#ffffff"/>
<path d="M128.395 28.8591H157.909V39.9264H159.385C160.368 37.5653 161.697 35.4993 163.369 33.7284C164.746 32.1543 166.616 30.7278 168.977 29.4488C171.338 28.0715 174.289 27.3828 177.831 27.3828H184.472V56.8972H171.19C167.452 56.8972 164.55 57.9302 162.484 59.9962C160.418 62.0622 159.385 64.9645 159.385 68.7029V105.596H128.395V28.8591Z" fill="#ffffff"/>
<path d="M220.682 107.807C214.386 107.807 208.581 106.725 203.269 104.561C197.956 102.396 193.332 99.4939 189.397 95.8538C185.56 92.1153 182.559 87.7373 180.395 82.7199C178.231 77.7025 177.148 72.3899 177.148 66.7821C177.148 61.1744 178.181 55.9602 180.247 51.1395C182.412 46.2204 185.412 41.9409 189.249 38.3008C193.086 34.6606 197.661 31.8076 202.974 29.7416C208.286 27.6756 214.189 26.6426 220.682 26.6426C227.175 26.6426 233.127 27.7248 238.538 29.8892C243.949 32.0535 248.573 34.9558 252.41 38.5959C256.345 42.236 259.395 46.5156 261.56 51.4347C263.822 56.2553 264.954 61.3712 264.954 66.7821V71.652H208.876C209.27 76.0792 210.598 79.5225 212.861 81.982C215.222 84.4416 218.075 85.6713 221.42 85.6713C223.683 85.6713 225.503 85.327 226.88 84.6383C228.356 83.9497 229.487 83.2118 230.274 82.4248C231.258 81.4409 231.996 80.3096 232.488 79.0306H264.216C262.445 84.4416 259.69 89.2623 255.952 93.4926C254.378 95.2635 252.459 97.0344 250.197 98.8052C248.032 100.478 245.523 102.003 242.67 103.38C239.817 104.659 236.571 105.692 232.931 106.479C229.29 107.364 225.208 107.807 220.682 107.807ZM232.488 59.1084C232.094 57.2392 231.406 55.5175 230.422 53.9434C229.635 52.6644 228.454 51.4838 226.88 50.4017C225.306 49.3195 223.24 48.7784 220.682 48.7784C218.124 48.7784 216.058 49.3195 214.484 50.4017C212.91 51.4838 211.729 52.6644 210.942 53.9434C209.959 55.5175 209.27 57.2392 208.876 59.1084H232.488Z" fill="#ffffff"/>
<path d="M298.852 107.807C292.556 107.807 286.751 106.725 281.439 104.561C276.126 102.396 271.502 99.4939 267.567 95.8538C263.73 92.1153 260.729 87.7373 258.565 82.7199C256.401 77.7025 255.318 72.3899 255.318 66.7821C255.318 61.1744 256.351 55.9602 258.417 51.1395C260.582 46.2204 263.582 41.9409 267.419 38.3008C271.256 34.6606 275.831 31.8076 281.143 29.7416C286.456 27.6756 292.359 26.6426 298.852 26.6426C305.345 26.6426 311.297 27.7248 316.708 29.8892C322.119 32.0535 326.743 34.9558 330.58 38.5959C334.515 42.236 337.565 46.5156 339.729 51.4347C341.992 56.2553 343.124 61.3712 343.124 66.7821V71.652H287.046C287.44 76.0792 288.768 79.5225 291.031 81.982C293.392 84.4416 296.245 85.6713 299.59 85.6713C301.853 85.6713 303.673 85.327 305.05 84.6383C306.526 83.9497 307.657 83.2118 308.444 82.4248C309.428 81.4409 310.166 80.3096 310.658 79.0306H342.386C340.615 84.4416 337.86 89.2623 334.122 93.4926C332.548 95.2635 330.629 97.0344 328.366 98.8052C326.202 100.478 323.693 102.003 320.84 103.38C317.987 104.659 314.741 105.692 311.101 106.479C307.46 107.364 303.378 107.807 298.852 107.807ZM310.658 59.1084C310.264 57.2392 309.576 55.5175 308.592 53.9434C307.805 52.6644 306.624 51.4838 305.05 50.4017C303.476 49.3195 301.41 48.7784 298.852 48.7784C296.294 48.7784 294.228 49.3195 292.654 50.4017C291.08 51.4838 289.899 52.6644 289.112 53.9434C288.129 55.5175 287.44 57.2392 287.046 59.1084H310.658Z" fill="#ffffff"/>
<path d="M339.469 50.2535H329.877V28.8512H339.469V11.8848H370.459V28.8512H388.906V50.2535H370.459V83.4571H390.381V105.593H339.469V50.2535Z" fill="#ffffff"/>
<path d="M78.6312 50.2593H69.0391V28.8571H78.6312V11.8906H109.621V28.8571H128.679V50.2593H109.621V83.463H129.544V105.599H78.6312V50.2593Z" fill="#ffffff"/>
<path d="M383.895 28.8555H414.501L422.263 73.8649H424.477L431.855 28.8555H465.059L472.438 73.8649H474.651L482.03 28.8555H513.02L497.525 105.593H456.943L449.121 59.8456H447.793L439.972 105.593H399.39L383.895 28.8555Z" fill="#ffffff"/>
<path d="M538.661 107.807C534.234 107.807 530.003 106.922 525.97 105.151C521.936 103.282 518.394 100.625 515.344 97.1819C512.393 93.7386 509.983 89.5082 508.113 84.4908C506.342 79.4733 505.457 73.718 505.457 67.2248C505.457 60.7317 506.342 54.9764 508.113 49.9589C509.983 44.9415 512.393 40.7111 515.344 37.2678C518.394 33.8244 521.936 31.2173 525.97 29.4464C530.003 27.5772 534.234 26.6426 538.661 26.6426C542.793 26.6426 546.285 27.3312 549.138 28.7086C551.991 29.9875 554.353 31.4141 556.222 32.9882C558.386 34.759 560.157 36.825 561.534 39.1862H563.01V28.8562H594V105.594H563.01V95.2635H561.534C560.157 97.723 558.386 99.8382 556.222 101.609C554.353 103.183 551.991 104.61 549.138 105.889C546.285 107.168 542.793 107.807 538.661 107.807ZM550.466 82.7199C553.811 82.7199 556.714 81.3426 559.173 78.5879C561.731 75.8332 563.01 72.0455 563.01 67.2248C563.01 62.4042 561.731 58.6165 559.173 55.8618C556.714 53.1071 553.811 51.7298 550.466 51.7298C546.728 51.7298 543.58 53.1071 541.022 55.8618C538.464 58.6165 537.185 62.4042 537.185 67.2248C537.185 72.0455 538.464 75.8332 541.022 78.5879C543.58 81.3426 546.728 82.7199 550.466 82.7199Z" fill="#ffffff"/>
<path d="M589.244 28.8555H620.234L630.564 80.5056H636.467L646.797 28.8555H677.787L659.341 105.593H607.691L589.244 28.8555Z" fill="#ffffff"/>
<path d="M764.64 36.0146C762.003 36.0146 759.555 35.5674 757.296 34.6729C755.036 33.7314 753.082 32.4603 751.434 30.8596C749.834 29.259 748.563 27.3523 747.621 25.1396C746.727 22.927 746.279 20.5495 746.279 18.0073C746.279 15.4651 746.727 13.0877 747.621 10.875C748.563 8.66234 749.834 6.75569 751.434 5.15504C753.082 3.55438 755.036 2.30682 757.296 1.41234C759.555 0.470779 762.003 0 764.64 0C767.276 0 769.724 0.470779 771.984 1.41234C774.244 2.30682 776.174 3.55438 777.774 5.15504C779.422 6.75569 780.693 8.66234 781.588 10.875C782.529 13.0877 783 15.4651 783 18.0073C783 20.5495 782.529 22.927 781.588 25.1396C780.693 27.3523 779.422 29.259 777.774 30.8596C776.174 32.4603 774.244 33.7314 771.984 34.6729C769.724 35.5674 767.276 36.0146 764.64 36.0146ZM764.64 32.4838C766.852 32.4838 768.853 32.1307 770.642 31.4245C772.478 30.7184 774.055 29.7297 775.373 28.4586C776.692 27.1404 777.704 25.6104 778.41 23.8685C779.116 22.0796 779.469 20.1258 779.469 18.0073C779.469 15.8888 779.116 13.9586 778.41 12.2167C777.704 10.4278 776.692 8.89773 775.373 7.62663C774.055 6.30845 772.478 5.29627 770.642 4.5901C768.853 3.88393 766.852 3.53085 764.64 3.53085C762.427 3.53085 760.403 3.88393 758.567 4.5901C756.778 5.29627 755.224 6.30845 753.906 7.62663C752.588 8.89773 751.576 10.4278 750.869 12.2167C750.163 13.9586 749.81 15.8888 749.81 18.0073C749.81 20.1258 750.163 22.0796 750.869 23.8685C751.576 25.6104 752.588 27.1404 753.906 28.4586C755.224 29.7297 756.778 30.7184 758.567 31.4245C760.403 32.1307 762.427 32.4838 764.64 32.4838ZM757.931 9.1802H765.699C768.006 9.1802 769.748 9.74514 770.925 10.875C772.149 11.9578 772.761 13.3937 772.761 15.1826C772.761 16.2654 772.549 17.1599 772.125 17.8661C771.748 18.5252 771.301 19.043 770.783 19.4197C770.218 19.8904 769.583 20.2435 768.877 20.4789L772.761 26.4814H768.877L765.346 21.1851H761.462V26.4814H757.931V9.1802ZM765.699 17.6542C766.923 17.6542 767.817 17.4188 768.382 16.9481C768.947 16.4773 769.23 15.8888 769.23 15.1826C769.23 14.4765 768.947 13.888 768.382 13.4172C767.817 12.9464 766.923 12.7111 765.699 12.7111H761.462V17.6542H765.699Z" fill="#ffffff"/>
</svg>
